<svg width="101" height="98" viewBox="0 0 101 98" fill="none" xmlns="http://www.w3.org/2000/svg">
<path d="M71.6674 10.7111C80.803 24.3855 86.0196 40.0142 80.7461 55.9952C75.9861 70.42 63.0132 78.9641 48.1158 68.2622C41.0635 63.1962 36.4872 52.9723 41.0691 45.3764C46.1738 36.9138 57.5029 44.4112 60.5762 50.1704C67.7546 63.6215 63.1038 81.7597 47.3119 89.9534C28.6107 99.6567 20.562 81.1081 20.7098 81.1037" stroke="#665AB5" stroke-width="2.65" stroke-miterlimit="1.5" stroke-linecap="round" stroke-linejoin="round"/>
<path d="M91.0256 14.5963C89.1011 14.9712 87.2152 14.5933 85.3117 14.3026C79.0611 13.3488 72.67 10.5339 68.7869 5.89197C71.0236 11.8454 71.6846 20.2492 66.9237 25.2906" stroke="#665AB5" stroke-width="2.65" stroke-miterlimit="1.5" stroke-linecap="round" stroke-linejoin="round"/>
</svg>
