<svg width="24" height="24" viewBox="0 0 24 24" fill="none" xmlns="http://www.w3.org/2000/svg">
<path d="M14.466 19.1799C16.0108 20.0254 17.3694 19.0006 17.074 17.2072L16.5435 13.987L18.7906 11.7065C20.0404 10.4381 19.5241 8.77622 17.7945 8.51456L14.689 8.04474L13.3071 5.12943C12.533 3.49641 10.8522 3.47885 10.0766 5.11494L8.68784 8.04474L5.58236 8.51456C3.85523 8.77585 3.3347 10.4363 4.58623 11.7065L6.83337 13.987L6.3029 17.2072C6.00787 18.9981 7.36383 20.0266 8.9108 19.1799L11.6884 17.6595L14.466 19.1799Z" fill="#6C5FBC"/>
<mask id="mask0_17726_489" style="mask-type:luminance" maskUnits="userSpaceOnUse" x="3" y="3" width="17" height="17">
<path d="M14.466 19.1799C16.0108 20.0254 17.3694 19.0006 17.074 17.2072L16.5435 13.987L18.7906 11.7065C20.0404 10.4381 19.5241 8.77622 17.7945 8.51456L14.689 8.04474L13.3071 5.12943C12.533 3.49641 10.8522 3.47885 10.0766 5.11494L8.68784 8.04474L5.58236 8.51456C3.85523 8.77585 3.3347 10.4363 4.58623 11.7065L6.83337 13.987L6.3029 17.2072C6.00787 18.9981 7.36383 20.0266 8.9108 19.1799L11.6884 17.6595L14.466 19.1799Z" fill="white"/>
</mask>
<g mask="url(#mask0_17726_489)">
</g>
</svg>
