<svg  width="41" height="41" viewBox="0 0 41 41" fill="none" xmlns="http://www.w3.org/2000/svg">
<circle cx="20.2242" cy="20.5533" r="20.0426" fill="#DBD9EE"/>
<path d="M24.6161 11.1851C21.7146 10.6987 18.7366 10.6987 15.8351 11.1851C14.775 11.3629 13.9309 12.1767 13.7183 13.2318C12.7446 18.0658 12.6915 23.0401 13.5617 27.8938L13.916 29.8699C14.0253 30.4793 14.7681 30.7228 15.2169 30.2964L19.4936 26.2336C19.9038 25.8439 20.5474 25.8439 20.9577 26.2336L25.2343 30.2964C25.6831 30.7228 26.426 30.4793 26.5352 29.8699L26.8895 27.8938C27.7598 23.0401 27.7066 18.0658 26.7329 13.2318C26.5204 12.1767 25.6762 11.3629 24.6161 11.1851Z" fill="#6C5FBC"/>
</svg>
