<svg width="169" height="61" viewBox="0 0 169 61" fill="none" xmlns="http://www.w3.org/2000/svg">
<path d="M168.51 6.14524C168.736 5.44942 168.356 4.70168 167.66 4.4751C166.964 4.24854 166.216 4.62893 165.99 5.32475L168.51 6.14524ZM134.211 38.1393L134.417 39.4481L134.211 38.1393ZM94.9327 16.2392L96.2576 16.2287L94.9327 16.2392ZM106.699 2.00495L106.79 3.32679L106.699 2.00495ZM119.187 12.3894L117.941 12.8395L119.187 12.3894ZM85.8664 47.5723L86.0118 48.8893L85.8664 47.5723ZM50.0898 25.0035L51.4127 24.9278L50.0898 25.0035ZM58.6008 14.038L58.9272 15.3222L58.6008 14.038ZM32.8261 59.2674L32.9313 57.9466L32.8261 59.2674ZM1.37233 39.7189L1.67289 38.4284C1.20208 38.3187 0.708912 38.4742 0.386083 38.834C0.0632658 39.1938 -0.0379848 39.7009 0.121904 40.1571L1.37233 39.7189ZM12.9722 43.781C13.6849 43.947 14.3973 43.5038 14.5633 42.7911C14.7293 42.0784 14.2861 41.3661 13.5734 41.2001L12.9722 43.781ZM4.36582 52.266C4.60787 52.9566 5.3639 53.3202 6.05449 53.0782C6.74509 52.8362 7.10871 52.0801 6.86667 51.3895L4.36582 52.266ZM167.25 5.735C165.99 5.32475 165.99 5.32442 165.99 5.32421C165.99 5.32428 165.99 5.32417 165.99 5.32431C165.99 5.3246 165.99 5.32531 165.989 5.32646C165.989 5.32876 165.987 5.33277 165.985 5.33847C165.982 5.34989 165.975 5.36806 165.967 5.39279C165.95 5.44226 165.924 5.51796 165.889 5.61827C165.819 5.8189 165.711 6.11784 165.564 6.50209C165.271 7.27077 164.824 8.37969 164.214 9.72495C162.993 12.4182 161.123 16.0443 158.531 19.7794C153.33 27.276 145.345 35.0415 134.004 36.8304L134.417 39.4481C146.782 37.4974 155.317 29.0607 160.708 21.2901C163.413 17.3916 165.358 13.6179 166.628 10.8196C167.263 9.41912 167.73 8.2594 168.041 7.44588C168.196 7.03902 168.311 6.71848 168.389 6.49739C168.428 6.38683 168.457 6.30111 168.477 6.24188C168.487 6.21227 168.495 6.18927 168.5 6.1731C168.503 6.16501 168.505 6.15862 168.507 6.15398C168.508 6.15165 168.508 6.14976 168.509 6.1483C168.509 6.14757 168.509 6.14681 168.509 6.14644C168.509 6.14579 168.51 6.14524 167.25 5.735ZM134.004 36.8304C125.148 38.2275 115.647 36.5955 108.382 32.7941C101.099 28.9829 96.3124 23.1503 96.2576 16.2287L93.6077 16.2497C93.6732 24.5238 99.3941 31.0818 107.154 35.1421C114.932 39.212 125.01 40.9322 134.417 39.4481L134.004 36.8304ZM96.2576 16.2287C96.2416 14.2002 97.0816 11.0373 98.8904 8.32693C100.682 5.64226 103.304 3.56809 106.79 3.32679L106.607 0.683114C102.057 0.998027 98.7776 3.72199 96.6862 6.85591C94.6119 9.96411 93.587 13.6403 93.6077 16.2497L96.2576 16.2287ZM106.79 3.32679C110.087 3.09861 112.447 4.40049 114.211 6.284C116.015 8.20966 117.182 10.7376 117.941 12.8395L120.433 11.9393C119.629 9.71127 118.313 6.78656 116.145 4.47227C113.938 2.11582 110.836 0.390421 106.607 0.683114L106.79 3.32679ZM117.941 12.8395C120.967 21.2178 117.74 28.9549 111.233 34.9948C104.704 41.0555 95.0158 45.2291 85.721 46.2553L86.0118 48.8893C95.8117 47.8074 106.047 43.4237 113.036 36.937C120.047 30.4296 123.933 21.6293 120.433 11.9393L117.941 12.8395ZM85.721 46.2553C77.749 47.1355 69.3253 45.6514 62.824 41.9973C56.3496 38.3582 51.8532 32.6242 51.4127 24.9278L48.767 25.0792C49.2704 33.875 54.4526 40.3319 61.5256 44.3074C68.5717 48.2677 77.5643 49.822 86.0118 48.8893L85.721 46.2553ZM51.4127 24.9278C51.2745 22.5139 51.8549 20.4733 53.06 18.8788C54.2673 17.2812 56.1875 16.0186 58.9272 15.3222L58.2744 12.7539C55.074 13.5674 52.5855 15.1114 50.9458 17.281C49.3038 19.4536 48.5988 22.1407 48.767 25.0792L51.4127 24.9278ZM58.9272 15.3222C61.4325 14.6854 63.4587 15.1941 65.1694 16.4251C66.9338 17.6947 68.426 19.7842 69.6426 22.384L72.0428 21.2608C70.7277 18.4505 68.9935 15.912 66.7172 14.2741C64.3872 12.5975 61.5583 11.9191 58.2744 12.7539L58.9272 15.3222ZM69.6426 22.384C73.7169 31.0908 69.408 40.2171 61.3002 47.2331C53.2116 54.2323 41.8197 58.6546 32.9313 57.9466L32.7209 60.5882C42.4857 61.3661 54.5525 56.5765 63.0342 49.237C71.4965 41.9143 76.8694 31.5752 72.0428 21.2608L69.6426 22.384ZM32.9313 57.9466C26.0317 57.397 18.4366 52.7361 12.4277 48.014C9.45504 45.6779 6.93009 43.3751 5.14816 41.6558C4.25787 40.7968 3.55474 40.0851 3.07579 39.5899C2.83636 39.3423 2.65307 39.1489 2.53054 39.0185C2.46928 38.9533 2.42322 38.9038 2.39295 38.8711C2.3778 38.8548 2.36661 38.8426 2.35943 38.8348C2.35585 38.8309 2.35327 38.8281 2.3517 38.8264C2.35091 38.8256 2.35038 38.825 2.35011 38.8247C2.34997 38.8245 2.34996 38.8245 2.34988 38.8244C2.34994 38.8245 2.35004 38.8246 1.37233 39.7189C0.394615 40.6131 0.39485 40.6134 0.395158 40.6137C0.395344 40.6139 0.395711 40.6143 0.396083 40.6147C0.396828 40.6155 0.397834 40.6166 0.39909 40.618C0.401613 40.6208 0.405156 40.6246 0.409706 40.6295C0.418806 40.6394 0.431948 40.6537 0.449073 40.6722C0.48331 40.7091 0.533445 40.763 0.598903 40.8327C0.729812 40.9721 0.922037 41.1748 1.17093 41.4321C1.66864 41.9468 2.39344 42.6803 3.30813 43.5628C5.1362 45.3267 7.72958 47.6923 10.7903 50.0976C16.8481 54.8582 24.9799 59.9716 32.7209 60.5882L32.9313 57.9466ZM1.07177 41.0093L12.9722 43.781L13.5734 41.2001L1.67289 38.4284L1.07177 41.0093ZM0.121904 40.1571L4.36582 52.266L6.86667 51.3895L2.62275 39.2806L0.121904 40.1571Z" fill="#6C5FBC"/>
</svg>
