<svg width="209" height="100" viewBox="0 0 209 100" fill="none" xmlns="http://www.w3.org/2000/svg">
<path d="M1.07422 83.6715C12.1442 83.6715 13.2155 98.0846 24.9997 98.0846C36.7839 98.0846 33.9271 57.1211 44.9972 57.1211C56.0672 57.1211 49.9965 22.6056 65.3517 22.6056C80.7069 22.6056 73.5649 57.1211 87.4917 57.1211C101.418 57.1211 99.2759 16.8297 108.203 16.8297C117.131 16.8297 114.631 40.8116 125.344 40.8116C136.057 40.8116 131.058 1.25586 142.485 1.25586C153.912 1.25586 152.84 18.5225 163.196 18.5225C173.552 18.5225 174.623 38.5359 188.907 38.5359C203.191 38.5359 194.264 60.8428 207.833 60.8428" stroke="#6C5FBC" stroke-width="1.98779" stroke-linecap="round" stroke-linejoin="round"/>
<path d="M176.583 25.9432C176.583 28.0519 174.992 29.6425 173.172 29.6425C171.352 29.6425 169.761 28.0519 169.761 25.9432C169.761 23.8344 171.352 22.2438 173.172 22.2438C174.992 22.2438 176.583 23.8344 176.583 25.9432Z" fill="#C5BFED" stroke="#6C5FBC" stroke-width="2.22012"/>
<rect x="172.556" y="4.0459" width="25.6489" height="11.9084" rx="5.95422" fill="#6C5FBC"/>
<path d="M181.199 10.7623C181.199 10.9547 181.149 11.136 181.049 11.3062C180.953 11.4728 180.808 11.6115 180.616 11.7225C180.427 11.8298 180.203 11.8927 179.944 11.9112V12.3608H179.589V11.9057C179.219 11.8724 178.921 11.7614 178.696 11.5727C178.47 11.3803 178.353 11.1212 178.346 10.7956H179.178C179.201 11.062 179.338 11.223 179.589 11.2785V10.2184C179.323 10.1518 179.108 10.0852 178.945 10.0186C178.783 9.95198 178.642 9.84467 178.524 9.69667C178.405 9.54866 178.346 9.347 178.346 9.09168C178.346 8.76977 178.461 8.50705 178.69 8.30354C178.923 8.10003 179.223 7.98348 179.589 7.95387V7.5043H179.944V7.95387C180.3 7.98348 180.583 8.09078 180.794 8.27579C181.008 8.4608 181.128 8.71611 181.154 9.04173H180.316C180.305 8.93443 180.266 8.84192 180.2 8.76422C180.137 8.68281 180.052 8.62546 179.944 8.59216V9.64116C180.222 9.71147 180.44 9.77992 180.599 9.84652C180.762 9.90943 180.903 10.0149 181.021 10.1629C181.14 10.3072 181.199 10.507 181.199 10.7623ZM179.156 9.05283C179.156 9.17494 179.193 9.27484 179.267 9.35255C179.341 9.42655 179.449 9.4876 179.589 9.53571V8.57551C179.456 8.59401 179.351 8.64396 179.273 8.72536C179.195 8.80677 179.156 8.91592 179.156 9.05283ZM179.944 11.2896C180.085 11.2637 180.194 11.2063 180.272 11.1175C180.353 11.0287 180.394 10.9214 180.394 10.7956C180.394 10.6735 180.355 10.5755 180.277 10.5015C180.2 10.4275 180.089 10.3664 179.944 10.3183V11.2896ZM181.944 11.0898V10.4793L183.759 7.88172H184.664V10.4127H185.152V11.0898H184.664V11.8779H183.887V11.0898H181.944ZM183.937 8.71426L182.799 10.4127H183.937V8.71426ZM185.647 9.80212C185.647 9.16199 185.762 8.66061 185.991 8.29799C186.224 7.93537 186.609 7.75406 187.146 7.75406C187.682 7.75406 188.065 7.93537 188.294 8.29799C188.528 8.66061 188.644 9.16199 188.644 9.80212C188.644 10.446 188.528 10.951 188.294 11.3174C188.065 11.6837 187.682 11.8668 187.146 11.8668C186.609 11.8668 186.224 11.6837 185.991 11.3174C185.762 10.951 185.647 10.446 185.647 9.80212ZM187.878 9.80212C187.878 9.52831 187.86 9.29889 187.823 9.11389C187.789 8.92518 187.719 8.77162 187.612 8.65321C187.508 8.5348 187.353 8.4756 187.146 8.4756C186.938 8.4756 186.781 8.5348 186.674 8.65321C186.57 8.77162 186.5 8.92518 186.463 9.11389C186.43 9.29889 186.413 9.52831 186.413 9.80212C186.413 10.0833 186.43 10.3201 186.463 10.5126C186.496 10.7013 186.566 10.8548 186.674 10.9732C186.781 11.0879 186.938 11.1453 187.146 11.1453C187.353 11.1453 187.51 11.0879 187.617 10.9732C187.725 10.8548 187.795 10.7013 187.828 10.5126C187.862 10.3201 187.878 10.0833 187.878 9.80212ZM190.134 10.7401C190.164 10.9029 190.23 11.0287 190.334 11.1175C190.441 11.2026 190.584 11.2452 190.761 11.2452C190.991 11.2452 191.157 11.1508 191.261 10.9621C191.365 10.7697 191.416 10.4478 191.416 9.99638C191.331 10.1148 191.211 10.2073 191.056 10.2739C190.904 10.3405 190.739 10.3738 190.562 10.3738C190.325 10.3738 190.11 10.3257 189.918 10.2295C189.729 10.1296 189.579 9.98343 189.468 9.79102C189.357 9.59491 189.302 9.3581 189.302 9.08058C189.302 8.66986 189.424 8.34424 189.668 8.10373C189.912 7.85952 190.245 7.73741 190.667 7.73741C191.193 7.73741 191.563 7.90577 191.777 8.24249C191.995 8.57921 192.105 9.08613 192.105 9.76327C192.105 10.2443 192.062 10.6384 191.977 10.9455C191.896 11.2526 191.753 11.4857 191.55 11.6448C191.35 11.8039 191.076 11.8835 190.728 11.8835C190.454 11.8835 190.221 11.8317 190.029 11.7281C189.836 11.6208 189.688 11.482 189.585 11.3118C189.485 11.1379 189.428 10.9473 189.413 10.7401H190.134ZM190.723 9.74107C190.915 9.74107 191.067 9.68186 191.178 9.56346C191.289 9.44505 191.344 9.28594 191.344 9.08613C191.344 8.86782 191.285 8.69946 191.167 8.58106C191.052 8.45895 190.895 8.3979 190.695 8.3979C190.495 8.3979 190.336 8.4608 190.218 8.58661C190.103 8.70871 190.045 8.87152 190.045 9.07503C190.045 9.27114 190.101 9.4321 190.212 9.55791C190.327 9.68001 190.497 9.74107 190.723 9.74107Z" fill="white"/>
</svg>
