<svg width="463" height="221" viewBox="0 0 463 221" fill="none" xmlns="http://www.w3.org/2000/svg">
<path opacity="0.2" d="M350.68 577.878C356.051 546.413 363.885 516.817 361.878 482.89C360.444 458.658 354.443 434.809 342.905 412.054C321.393 369.626 293.272 329.18 259.84 296.952C225.679 264.021 192.142 228.189 153.566 202.9C117.7 179.387 79.446 159.962 44.4785 134.41C-14.1103 91.5978 -55.5779 23.2802 -90.7742 -42.2882C-109.394 -76.9764 -127.862 -111.901 -145.689 -147.001C-156.875 -169.027 -166.273 -192.647 -180.028 -213.115" stroke="#A596FF" stroke-width="4.01667" stroke-linecap="round"/>
<path opacity="0.2" d="M394.34 566.6C400.134 532.606 408.589 500.633 406.415 463.977C404.861 437.797 398.374 412.03 385.907 387.442C362.662 341.6 332.28 297.896 296.163 263.07C259.258 227.484 223.027 188.764 181.355 161.433C142.61 136.023 101.288 115.028 63.5135 87.4146C0.221892 41.1481 -44.5823 -32.6707 -82.6122 -103.518C-102.731 -140.999 -122.686 -178.735 -141.948 -216.66C-154.036 -240.46 -164.191 -265.98 -179.052 -288.097" stroke="#A596FF" stroke-width="4.01667" stroke-linecap="round"/>
</svg>
