<svg width="23" height="23" viewBox="0 0 23 23" fill="none" xmlns="http://www.w3.org/2000/svg">
<path fill-rule="evenodd" clip-rule="evenodd" d="M11.9508 0.294884L15.2326 7.26932L22.5688 8.38799C22.7587 8.41751 22.9162 8.55695 22.9754 8.7479C23.0345 8.93886 22.9851 9.14837 22.8478 9.28867L17.5403 14.7163L18.7934 22.3818C18.8264 22.5795 18.749 22.7796 18.5938 22.8977C18.4386 23.0158 18.2327 23.0315 18.0629 22.938L11.5007 19.3196L4.93864 22.9391C4.76888 23.0328 4.56286 23.0174 4.40761 22.8994C4.25235 22.7813 4.17494 22.5811 4.20807 22.3834L5.46118 14.7163L0.152187 9.28867C0.0148778 9.14837 -0.0345498 8.93886 0.0246073 8.7479C0.0837645 8.55695 0.241294 8.41751 0.431213 8.38799L7.7674 7.26932L11.0507 0.294884C11.1343 0.114543 11.3091 0 11.5007 0C11.6924 0 11.8672 0.114543 11.9508 0.294884Z" fill="#F59E0B"/>
</svg>
