<svg width="128" height="221" viewBox="0 0 128 221" fill="none" xmlns="http://www.w3.org/2000/svg">
<path opacity="0.2" d="M250.547 -80.8447C227.068 -78.6528 201.569 -78.3091 178.691 -73.183C156.305 -68.1671 132.729 -59.0673 113.033 -49.4564C76.737 -31.7454 58.1474 -6.95103 41.2821 22.6297C13.4496 71.4467 3.3729 122.078 2.93791 175.123C2.64995 210.239 3.99988 244.997 7.66528 279.998C8.78437 290.684 8.22504 302.9 16.0695 312.128" stroke="#A596FF" stroke-width="4.44874" stroke-linecap="round"/>
<path opacity="0.2" d="M298.001 -55.6357C273.819 -53.3776 247.556 -53.0235 223.993 -47.7427C200.937 -42.5754 176.655 -33.2008 156.37 -23.2998C118.987 -5.05417 99.8405 20.4887 82.4704 50.9625C53.8045 101.253 43.4261 153.413 42.9781 208.059C42.6815 244.235 44.0719 280.042 47.847 316.1C48.9996 327.109 48.4235 339.694 56.5028 349.2" stroke="#A596FF" stroke-width="4.44874" stroke-linecap="round"/>
</svg>
