<svg width="27" height="27" viewBox="0 0 27 27" fill="none" xmlns="http://www.w3.org/2000/svg">
<path d="M16.3597 21.688C18.0637 22.6207 19.5623 21.4903 19.2364 19.512L18.6512 15.9599L21.13 13.4443C22.5085 12.0453 21.939 10.2121 20.0312 9.92343L16.6056 9.40519L15.0812 6.1894C14.2273 4.38806 12.3733 4.36869 11.5179 6.17341L9.9859 9.40519L6.56034 9.92343C4.6552 10.2117 4.08101 12.0433 5.46154 13.4443L7.94029 15.9599L7.35514 19.512C7.0297 21.4875 8.52542 22.622 10.2318 21.688L13.2958 20.0109L16.3597 21.688Z" fill="#6C5FBC"/>
<mask id="mask0_1_16731" style="mask-type:luminance" maskUnits="userSpaceOnUse" x="4" y="4" width="18" height="19">
<path d="M16.3597 21.688C18.0637 22.6207 19.5623 21.4903 19.2364 19.512L18.6512 15.9599L21.13 13.4443C22.5085 12.0453 21.939 10.2121 20.0312 9.92343L16.6056 9.40519L15.0812 6.1894C14.2273 4.38806 12.3733 4.36869 11.5179 6.17341L9.9859 9.40519L6.56034 9.92343C4.6552 10.2117 4.08101 12.0433 5.46154 13.4443L7.94029 15.9599L7.35514 19.512C7.0297 21.4875 8.52542 22.622 10.2318 21.688L13.2958 20.0109L16.3597 21.688Z" fill="white"/>
</mask>
<g mask="url(#mask0_1_16731)">
</g>
</svg>
