<svg width="51" height="51" viewBox="0 0 51 51" fill="none" xmlns="http://www.w3.org/2000/svg">
<rect x="0.532227" y="0.41748" width="50.2588" height="50.2588" rx="25.1294" fill="#F2FDF6"/>
<path d="M30.8963 35.2331H20.4257C17.2845 35.2331 15.1904 33.6625 15.1904 29.9978V22.6684C15.1904 19.0037 17.2845 17.4331 20.4257 17.4331H30.8963C34.0375 17.4331 36.1316 19.0037 36.1316 22.6684V29.9978C36.1316 33.6625 34.0375 35.2331 30.8963 35.2331Z" stroke="#22C55E" stroke-width="1.57059" stroke-miterlimit="10" stroke-linecap="round" stroke-linejoin="round"/>
<path d="M25.6617 29.4738C27.3965 29.4738 28.8029 28.0674 28.8029 26.3326C28.8029 24.5978 27.3965 23.1914 25.6617 23.1914C23.9269 23.1914 22.5205 24.5978 22.5205 26.3326C22.5205 28.0674 23.9269 29.4738 25.6617 29.4738Z" stroke="#22C55E" stroke-width="1.57059" stroke-miterlimit="10" stroke-linecap="round" stroke-linejoin="round"/>
<path d="M18.8564 23.7153V28.9506" stroke="#22C55E" stroke-width="1.57059" stroke-miterlimit="10" stroke-linecap="round" stroke-linejoin="round"/>
<path d="M32.4668 23.7153V28.9506" stroke="#22C55E" stroke-width="1.57059" stroke-miterlimit="10" stroke-linecap="round" stroke-linejoin="round"/>
</svg>
